<svg width="32" height="32" viewBox="0 0 32 32" fill="none" xmlns="http://www.w3.org/2000/svg">
<g clip-path="url(#clip0_1_34)">
<path d="M27.8208 15.4233C27.9385 16.7901 27.8468 18.1669 27.5489 19.506C27.4042 20.1419 27.2595 20.7778 27.0578 21.3961C26.7899 22.1834 26.4645 22.95 26.0843 23.6896C25.9439 23.9746 25.8168 24.2684 25.6896 24.5666C25.2354 25.6646 24.5828 26.6696 23.7644 27.5311C22.8742 28.478 21.7619 29.1879 20.5281 29.5966C19.9193 29.8382 19.266 29.9474 18.6117 29.9167C18.1732 30.0921 17.7347 29.9605 17.2962 29.9956C16.7036 30.0154 16.1115 29.9414 15.5421 29.7763C13.6952 29.324 11.9656 28.4839 10.4683 27.3118C9.35318 26.4381 8.35405 25.4257 7.49507 24.2991C6.52357 23.0128 5.72451 21.6048 5.11825 20.1112C4.93761 19.6504 4.78099 19.1805 4.64902 18.7035C4.25281 17.3993 4.02873 16.0489 3.98246 14.6866C3.95958 13.4507 4.06837 12.2159 4.30697 11.003C4.44222 10.3692 4.61948 9.7451 4.83759 9.13485C5.12477 8.24391 5.53353 7.39687 6.05231 6.6177C6.45813 5.99801 6.92692 5.42194 7.45121 4.89867C8.17839 4.20729 8.99559 3.61726 9.88066 3.14456C10.0314 3.01693 10.2225 2.94699 10.42 2.94722C10.4739 2.94965 10.5269 2.93252 10.5691 2.89898C10.8168 2.73712 11.0894 2.61711 11.376 2.54377C11.9937 2.33599 12.6273 2.17906 13.2705 2.07455C13.7923 2.12717 14.3142 1.95614 14.8404 2.04824C15.1308 2.09125 15.4239 2.11324 15.7175 2.11401C15.9837 2.11279 16.2479 2.15882 16.498 2.24996C16.6417 2.28647 16.7886 2.30851 16.9366 2.31574C17.2015 2.33645 17.4588 2.41424 17.6908 2.54377C17.7915 2.61886 17.9168 2.6533 18.0417 2.64025C18.1123 2.63477 18.1829 2.65164 18.2434 2.68849C18.717 2.94722 19.2652 3.02615 19.7168 3.35505C19.9851 3.51796 20.2686 3.65454 20.5632 3.76288C20.6114 3.78391 20.657 3.8104 20.6991 3.84181C21.1377 4.20141 21.6551 4.44698 22.0805 4.81973C22.3699 5.07846 22.7032 5.28457 22.9576 5.55207C23.3961 5.9906 23.8346 6.45983 24.2731 6.94659C24.7117 7.43336 24.9748 7.82365 25.2993 8.28849C25.569 8.6603 25.8179 9.0468 26.0448 9.4462C26.4551 10.1504 26.7832 10.8993 27.0227 11.6783C27.1806 12.2221 27.3867 12.7483 27.5182 13.2965C27.703 13.9909 27.8046 14.7049 27.8208 15.4233ZM26.6675 15.704C26.6187 15.0737 26.516 14.4487 26.3605 13.8359C26.1257 12.8384 25.7723 11.8726 25.3081 10.9591C24.938 10.2147 24.5052 9.50319 24.0144 8.83226C23.2787 7.8337 22.423 6.92939 21.4666 6.1397C21.1859 5.9029 20.8351 5.74064 20.6465 5.39859C20.6342 5.37798 20.6169 5.36078 20.5962 5.34853C20.5755 5.33628 20.5521 5.32937 20.5281 5.32842C20.3834 5.36351 20.3045 5.25826 20.1948 5.20564C19.8528 5.039 19.5984 4.72326 19.2213 4.60924C19.1511 4.39436 18.9231 4.57416 18.8135 4.45137C18.6356 4.27247 18.402 4.15956 18.1513 4.13124C17.912 4.10677 17.682 4.02559 17.4803 3.89444C17.2348 3.68394 16.9585 3.83304 16.7217 3.72341C16.6594 3.69117 16.5949 3.66333 16.5287 3.64009C16.2979 3.54665 16.0495 3.50475 15.8008 3.5173C15.6787 3.53369 15.5545 3.52321 15.4368 3.48661C15.1563 3.38467 14.8544 3.356 14.5598 3.40329C14.2659 3.44275 13.959 3.37698 13.6827 3.40329C13.0323 3.46775 12.3893 3.59254 11.7619 3.77604C11.4944 3.86374 11.2357 3.97337 10.977 4.07423C10.7182 4.1751 10.6262 4.4426 10.328 4.36366C10.2973 4.36366 10.2446 4.42506 10.2096 4.46014C10.1434 4.53901 10.0667 4.60837 9.98152 4.66625C9.70963 4.7978 9.54299 5.10477 9.25795 5.17932C8.97291 5.25387 8.81942 5.61785 8.52122 5.77134C8.45818 5.80139 8.40939 5.8549 8.38528 5.92044C8.33704 6.109 8.18794 6.20986 8.06954 6.35896C7.95114 6.50806 7.85027 6.68786 7.70556 6.73171C7.43806 6.81065 7.53892 7.05622 7.4249 7.19655C7.07746 7.5219 6.81154 7.92453 6.64871 8.37181C6.63393 8.40493 6.61476 8.4359 6.5917 8.4639C6.31797 8.93277 6.10293 9.43353 5.95145 9.95489C5.73588 10.6883 5.5631 11.4336 5.43399 12.187C5.32482 13.0595 5.29107 13.9398 5.33313 14.8182C5.4012 15.9507 5.61642 17.0696 5.97338 18.1466C6.06884 18.4753 6.18156 18.7988 6.31104 19.1157C6.82868 20.3582 7.46764 21.5465 8.21864 22.6634C8.7166 23.3944 9.26771 24.0877 9.8675 24.7377C10.5436 25.4649 11.2865 26.1271 12.0865 26.7154C12.9342 27.3593 13.8558 27.8996 14.8316 28.3248C16.0909 28.8717 17.4698 29.0846 18.8354 28.9431C19.8663 28.852 20.8544 28.4888 21.699 27.8907C22.5232 27.2697 23.2517 26.531 23.8609 25.698C23.8964 25.6205 23.9244 25.5398 23.9442 25.4569C23.3873 25.6279 22.9356 25.9831 22.3743 25.8559C22.2205 25.7496 22.095 25.6073 22.0086 25.4415C21.9223 25.2757 21.8777 25.0913 21.8788 24.9043C21.8481 24.6582 21.8481 24.4093 21.8788 24.1632C21.984 23.5887 22.1068 23.0186 22.2515 22.4529C22.3472 22.057 22.4718 21.6686 22.6243 21.2908C23.0371 20.3046 23.536 19.3566 24.1153 18.4579C24.4194 17.9188 24.7608 17.4015 25.137 16.9099C25.5414 16.3893 26.0668 15.9754 26.6675 15.704ZM26.3342 19.9446L26.4088 20.0016C26.4088 20.0016 26.4088 19.9665 26.4088 19.9577C26.3969 19.93 26.3822 19.9035 26.3649 19.8788L26.3342 19.9446Z" fill="white"/>
<path d="M16.5594 27.0136C15.5493 27.17 14.5165 26.96 13.6476 26.4216C13.2485 26.198 12.8495 25.9831 12.4592 25.7156C11.5798 25.15 10.8321 24.4023 10.2666 23.523C9.96836 23.0625 9.67016 22.6064 9.38951 22.1328C9.189 21.8183 9.0547 21.4661 8.99483 21.0979C8.95098 20.7865 8.84573 20.4796 8.79311 20.1682C8.70337 19.5522 8.74674 18.9242 8.92028 18.3264C9.0302 17.9108 9.28138 17.5464 9.6307 17.2959C9.98047 17.0389 10.3795 16.8569 10.8027 16.7611C11.226 16.6652 11.6645 16.6577 12.0908 16.7389C12.602 16.7909 13.108 16.8847 13.6038 17.0196C14.4725 17.2594 15.287 17.6644 16.0025 18.2124C16.5029 18.6069 16.9747 19.0362 17.4146 19.4973C17.5844 19.6786 17.7426 19.8704 17.8882 20.0717C18.3487 20.7017 18.7288 21.3867 19.0196 22.1109C19.2974 22.9127 19.4598 23.7499 19.502 24.5974C19.535 24.9718 19.4507 25.3473 19.2608 25.6717C19.2184 25.7485 19.1803 25.8275 19.1467 25.9085C19.0627 26.1051 18.9361 26.2806 18.7761 26.4224C18.6161 26.5642 18.4267 26.6687 18.2215 26.7286C17.8839 26.8327 17.5396 26.9133 17.1909 26.9698C16.9817 26.9991 16.7707 27.0138 16.5594 27.0136ZM12.275 20.598L12.2312 20.5234C12.2312 20.5234 12.1961 20.5497 12.2005 20.5541C12.2108 20.5813 12.2256 20.6065 12.2443 20.6287L12.275 20.598Z" fill="white"/>
</g>
<defs>
<clipPath id="clip0_1_34">
<rect width="23.8603" height="28" fill="white" transform="translate(4 2)"/>
</clipPath>
</defs>
</svg>
