<svg width="32" height="32" viewBox="0 0 32 32" fill="none" xmlns="http://www.w3.org/2000/svg">
<path d="M28.122 8.97264C26.8701 6.82763 25.1719 5.12941 23.0271 3.87762C20.882 2.62577 18.5401 2 15.9999 2C13.46 2 11.1173 2.62596 8.97264 3.87762C6.82763 5.12935 5.12954 6.82763 3.87762 8.97264C2.6259 11.1176 2 13.4599 2 15.9995C2 19.0501 2.89003 21.7933 4.67054 24.2298C6.45086 26.6665 8.75077 28.3525 11.5701 29.2882C11.8983 29.3491 12.1412 29.3063 12.2992 29.1608C12.4572 29.0151 12.5361 28.8326 12.5361 28.6141C12.5361 28.5777 12.533 28.2497 12.5269 27.6298C12.5206 27.0099 12.5177 26.4691 12.5177 26.0077L12.0984 26.0802C11.8311 26.1292 11.4938 26.1499 11.0867 26.1441C10.6797 26.1384 10.2573 26.0957 9.81983 26.0164C9.38222 25.9378 8.9752 25.7556 8.59843 25.47C8.22186 25.1844 7.95453 24.8106 7.79651 24.3491L7.61423 23.9296C7.49272 23.6503 7.30144 23.3401 7.04011 23C6.77878 22.6597 6.51452 22.4289 6.24719 22.3074L6.11956 22.216C6.03451 22.1553 5.9556 22.0821 5.88262 21.9971C5.80971 21.9121 5.75512 21.8271 5.71866 21.7419C5.68214 21.6567 5.7124 21.5868 5.80977 21.5319C5.90714 21.4771 6.0831 21.4505 6.33843 21.4505L6.70287 21.5049C6.94593 21.5536 7.24659 21.6991 7.60522 21.9423C7.96366 22.1853 8.25832 22.5013 8.48925 22.89C8.7689 23.3884 9.10583 23.7681 9.50098 24.0294C9.89581 24.2908 10.2939 24.4212 10.6949 24.4212C11.0958 24.4212 11.4421 24.3908 11.7339 24.3304C12.0254 24.2696 12.2988 24.1782 12.5542 24.0568C12.6635 23.2422 12.9613 22.6164 13.4473 22.179C12.7546 22.1062 12.1319 21.9966 11.5788 21.8508C11.026 21.7049 10.4548 21.468 9.86548 21.1396C9.27585 20.8116 8.78672 20.4043 8.39795 19.9184C8.00912 19.4323 7.69001 18.7941 7.44107 18.0044C7.192 17.2143 7.06744 16.303 7.06744 15.27C7.06744 13.7993 7.54757 12.5478 8.50764 11.5147C8.0579 10.409 8.10036 9.16948 8.63514 7.79625C8.98758 7.68676 9.51024 7.76893 10.2029 8.04226C10.8956 8.31572 11.4028 8.54997 11.725 8.7442C12.0471 8.93836 12.3053 9.10289 12.4998 9.23633C13.6302 8.92048 14.7967 8.76252 15.9997 8.76252C17.2028 8.76252 18.3696 8.92048 19.5 9.23633L20.1927 8.79904C20.6664 8.50726 21.2258 8.23987 21.8695 7.9968C22.5136 7.75386 23.0061 7.68695 23.3465 7.79645C23.8932 9.16974 23.9419 10.4092 23.492 11.5149C24.452 12.548 24.9324 13.7998 24.9324 15.2702C24.9324 16.3031 24.8074 17.2174 24.5587 18.0135C24.3097 18.8097 23.9878 19.4473 23.593 19.9276C23.1977 20.4078 22.7054 20.8119 22.1161 21.1398C21.5267 21.4679 20.9553 21.7048 20.4025 21.8508C19.8494 21.9967 19.2267 22.1064 18.5341 22.1793C19.1658 22.726 19.4817 23.5889 19.4817 24.7676V28.6136C19.4817 28.8321 19.5577 29.0145 19.7098 29.1603C19.8617 29.3058 20.1016 29.3486 20.4297 29.2877C23.2494 28.3521 25.5493 26.666 27.3296 24.2293C29.1096 21.7928 30 19.0496 30 15.999C29.9994 13.4597 29.3731 11.1176 28.122 8.97264Z" fill="white"/>
</svg>
