<svg width="32" height="32" viewBox="0 0 32 32" fill="none" xmlns="http://www.w3.org/2000/svg">
<path d="M7.53112 4.86005C8.99675 4.86124 10.2055 6.07178 10.2024 7.54472C10.1989 9.08703 8.91895 10.2495 7.51307 10.216C6.08711 10.2448 4.83395 9.05382 4.83423 7.53454C4.83423 6.06104 6.04772 4.85892 7.53112 4.86005Z" fill="white"/>
<path d="M9.08822 27.1368H5.94805C5.54051 27.1368 5.21014 26.8064 5.21014 26.3989V13.0027C5.21014 12.5952 5.54051 12.2648 5.94805 12.2648H9.08822C9.49576 12.2648 9.82613 12.5952 9.82613 13.0027V26.3989C9.82606 26.8064 9.49576 27.1368 9.08822 27.1368Z" fill="white"/>
<path d="M27.1658 16.9701C27.1658 14.1618 24.8891 11.885 22.0807 11.885H21.2753C19.7388 11.885 18.3814 12.6517 17.5649 13.8234C17.4759 13.9512 17.3934 14.0838 17.3177 14.2207C17.2915 14.2168 17.276 14.2148 17.2757 14.2155V12.5711C17.2757 12.402 17.1385 12.2648 16.9693 12.2648H13.0516C12.8824 12.2648 12.7452 12.4019 12.7452 12.5711V26.8306C12.7452 26.9997 12.8823 27.1368 13.0514 27.1369L17.0546 27.1379C17.2238 27.138 17.361 27.0008 17.361 26.8315V18.5935C17.361 17.1695 18.4967 15.9871 19.9207 15.971C20.6476 15.9628 21.3065 16.2541 21.7815 16.7293C22.2502 17.1977 22.54 17.8454 22.54 18.5605V26.8326C22.54 27.0017 22.6771 27.1389 22.8462 27.139L26.8592 27.1399C27.0284 27.14 27.1656 27.0028 27.1656 26.8336V16.9701H27.1658Z" fill="white"/>
</svg>
